/* XPM */
static char * close_pressed_xpm[] = {
"21 21 170 2",
"  	c None",
". 	c #FAEBE9",
"+ 	c #FCC9C0",
"@ 	c #FDC9BF",
"# 	c #FEC9BF",
"$ 	c #FFC9BF",
"% 	c #FBC9C0",
"& 	c #F5D8D4",
"* 	c #F9E8E6",
"= 	c #FCC0B5",
"- 	c #FDC0B5",
"; 	c #FEC0B4",
"> 	c #FFC0B4",
", 	c #FEC0B5",
"' 	c #FBC0B5",
") 	c #F2D2CD",
"! 	c #F8E4E1",
"~ 	c #FBB4A7",
"{ 	c #FCB4A7",
"] 	c #BB847A",
"^ 	c #8C635B",
"/ 	c #FFB4A6",
"( 	c #FEB4A7",
"_ 	c #FDB4A7",
": 	c #FAB4A7",
"< 	c #F0C9C3",
"[ 	c #F7DFDC",
"} 	c #FAA798",
"| 	c #FCA798",
"1 	c #8B5C53",
"2 	c #FFFFFF",
"3 	c #8C5C53",
"4 	c #BB7B6F",
"5 	c #FDA798",
"6 	c #F9A798",
"7 	c #EEBFB8",
"8 	c #F5DBD7",
"9 	c #FA9B8A",
"0 	c #FB9B8A",
"a 	c #BA7265",
"b 	c #8C554B",
"c 	c #FDFDFD",
"d 	c #FE9B8A",
"e 	c #FC9B8A",
"f 	c #F89B8A",
"g 	c #EBB6AF",
"h 	c #F5D7D3",
"i 	c #F9907D",
"j 	c #FA917D",
"k 	c #FE927D",
"l 	c #BB6B5C",
"m 	c #8C5045",
"n 	c #FAFAFA",
"o 	c #FD917D",
"p 	c #FB917D",
"q 	c #FA907D",
"r 	c #F7907D",
"s 	c #EAAFA7",
"t 	c #F4D5D1",
"u 	c #F88B77",
"v 	c #FB8B76",
"w 	c #FE8C76",
"x 	c #FF8C76",
"y 	c #BB6757",
"z 	c #8C4D41",
"A 	c #E9E9E9",
"B 	c #FD8B76",
"C 	c #F98B77",
"D 	c #F78B77",
"E 	c #E9ABA2",
"F 	c #EAB2A9",
"G 	c #EE2704",
"H 	c #F22803",
"I 	c #F92902",
"J 	c #FA2902",
"K 	c #B81E01",
"L 	c #891701",
"M 	c #F62803",
"N 	c #F32803",
"O 	c #EF2704",
"P 	c #EC2704",
"Q 	c #D56453",
"R 	c #EAB3A9",
"S 	c #E92A04",
"T 	c #EC2A03",
"U 	c #F32B02",
"V 	c #B32001",
"W 	c #861801",
"X 	c #E2E2E2",
"Y 	c #F02B03",
"Z 	c #ED2B03",
"` 	c #E72A04",
" .	c #D66653",
"..	c #EBB5A9",
"+.	c #E13206",
"@.	c #E53305",
"#.	c #AD2703",
"$.	c #821D02",
"%.	c #DCDCDC",
"&.	c #E83404",
"*.	c #E63305",
"=.	c #E23305",
"-.	c #D76A53",
";.	c #ECB7A9",
">.	c #D83F08",
",.	c #DC4107",
"'.	c #7C2503",
").	c #D7D7D7",
"!.	c #7D2503",
"~.	c #A73204",
"{.	c #E04206",
"].	c #DD4107",
"^.	c #D94007",
"/.	c #D96F53",
"(.	c #EDBBA9",
"_.	c #D14E0A",
":.	c #D3500A",
"<.	c #9F3E07",
"[.	c #772E05",
"}.	c #D95409",
"|.	c #D75309",
"1.	c #D4510A",
"2.	c #D24F0A",
"3.	c #D97754",
"4.	c #EDC0AB",
"5.	c #C95E11",
"6.	c #CC6011",
"7.	c #CE6310",
"8.	c #D16410",
"9.	c #CF6410",
"0.	c #CC6111",
"a.	c #CA5F11",
"b.	c #C75D11",
"c.	c #D2774D",
"d.	c #EEC3AC",
"e.	c #C37516",
"f.	c #C77A16",
"g.	c #C87C15",
"h.	c #CA8015",
"i.	c #CB8115",
"j.	c #CB8015",
"k.	c #C97D15",
"l.	c #C77B15",
"m.	c #C47716",
"n.	c #C37316",
"o.	c #B25F30",
"p.	c #F3D6C4",
"q.	c #F8BD56",
"r.	c #FAC156",
"s.	c #FCC556",
"t.	c #FDC956",
"u.	c #FECA56",
"v.	c #FEC956",
"w.	c #FCC656",
"x.	c #FAC356",
"y.	c #F8BE56",
"z.	c #F7BA56",
"A.	c #7B3D14",
"B.	c #925D08",
"C.	c #956108",
"D.	c #966408",
"E.	c #986808",
"F.	c #996B08",
"G.	c #9A6C08",
"H.	c #996C08",
"I.	c #986908",
"J.	c #966608",
"K.	c #956208",
"L.	c #935E08",
"M.	c #915A08",
". + + @ # # $ $ $ $ $ $ $ $ $ $ # @ + % & ",
". + + @ # # $ $ $ $ $ $ $ $ $ $ # @ + % & ",
"* = = - - ; > > > > > > > > > > , - = ' ) ",
"! ~ ~ { ] ^ ^ ^ ] / ] ^ ^ ^ ] ( ( _ ~ : < ",
"[ } } | 1 2 2 2 3 4 3 2 2 2 1 5 5 | } 6 7 ",
"8 9 9 0 a b c c c b c c c b a d d e 9 f g ",
"h i i j k l m n n n n n m l k o o p q r s ",
"t u u v w x y z A A A z y x w B B v C D E ",
"F G G H I J K L A A A L K J I M M N O P Q ",
"R S S T U V W X X X X X W V U Y Y Z S `  .",
"..+.+.@.#.$.%.%.%.$.%.%.%.$.#.&.&.*.=.=.-.",
";.>.>.,.'.).).).!.~.!.).).).'.{.{.].^.^./.",
"(._._.:.<.[.[.[.<.}.<.[.[.[.<.|.|.1.2.2.3.",
"4.5.5.6.7.8.8.8.8.8.8.8.8.8.8.8.9.0.a.b.c.",
"d.e.e.f.g.h.i.i.i.i.i.i.i.i.i.j.k.l.m.n.o.",
"p.q.q.r.s.t.u.u.u.u.u.u.u.u.u.v.w.x.y.z.A.",
"B.B.C.D.E.F.G.G.G.G.G.G.G.G.G.H.I.J.K.L.M.",
"                                          ",
"                                          ",
"                                          ",
"                                          "};
