/* XPM */
static char * vista_max_pressed_xpm[] = {
"21 21 212 2",
"  	c None",
". 	c #3F738D",
"+ 	c #E9F6FF",
"@ 	c #C0E5FE",
"# 	c #C1E6FE",
"$ 	c #C2E6FE",
"% 	c #C2E7FE",
"& 	c #C3E7FE",
"* 	c #C3E8FE",
"= 	c #C3E8FF",
"- 	c #DDF1FF",
"; 	c #3F7793",
"> 	c #3E7590",
", 	c #E5F4FF",
"' 	c #B6E1FE",
") 	c #B7E1FE",
"! 	c #B8E2FE",
"~ 	c #B8E3FE",
"{ 	c #B9E3FE",
"] 	c #B9E4FE",
"^ 	c #B9E4FF",
"/ 	c #B7E2FE",
"( 	c #B6E2FE",
"_ 	c #D7EEFF",
": 	c #3E7996",
"< 	c #3F7995",
"[ 	c #E0F2FF",
"} 	c #A8DBFE",
"| 	c #A9DCFE",
"1 	c #AADDFE",
"2 	c #ABDEFE",
"3 	c #ACDEFE",
"4 	c #ACDFFF",
"5 	c #A8DCFE",
"6 	c #CFEBFF",
"7 	c #3F7C9B",
"8 	c #407C99",
"9 	c #7DA2BA",
"0 	c #5E7A8B",
"a 	c #5E7A8C",
"b 	c #407F9F",
"c 	c #427E9C",
"d 	c #DBF0FF",
"e 	c #98D5FD",
"f 	c #9AD6FD",
"g 	c #9BD7FE",
"h 	c #56778B",
"i 	c #FCFCFC",
"j 	c #9AD7FE",
"k 	c #C7E8FF",
"l 	c #4282A2",
"m 	c #42819F",
"n 	c #D6EEFF",
"o 	c #8BCFFE",
"p 	c #8CD1FE",
"q 	c #8DD1FE",
"r 	c #4E738B",
"s 	c #BFE5FF",
"t 	c #4385A5",
"u 	c #4382A1",
"v 	c #D2ECFF",
"w 	c #7FCBFD",
"x 	c #81CBFD",
"y 	c #81CCFD",
"z 	c #48718B",
"A 	c #49728B",
"B 	c #48728B",
"C 	c #B9E2FF",
"D 	c #4386A6",
"E 	c #CFECFE",
"F 	c #79C7FD",
"G 	c #7AC9FD",
"H 	c #7BCBFD",
"I 	c #446F8B",
"J 	c #E9E9E9",
"K 	c #46718B",
"L 	c #7FCDFE",
"M 	c #7ACAFD",
"N 	c #B5E1FE",
"O 	c #A7DAFC",
"P 	c #0696F6",
"Q 	c #0998F6",
"R 	c #0B9AF7",
"S 	c #075688",
"T 	c #0A5788",
"U 	c #12A0F9",
"V 	c #095788",
"W 	c #0A9AF7",
"X 	c #0899F7",
"Y 	c #77C6FA",
"Z 	c #4485A3",
"` 	c #A7D9FA",
" .	c #0693F1",
"..	c #0995F1",
"+.	c #0B99F2",
"@.	c #065685",
"#.	c #E2E2E2",
"$.	c #076086",
"%.	c #076286",
"&.	c #076386",
"*.	c #066386",
"=.	c #066186",
"-.	c #065885",
";.	c #099BF2",
">.	c #0898F2",
",.	c #77C4F8",
"'.	c #4488A8",
").	c #A7D7F8",
"!.	c #068FEA",
"~.	c #0893EA",
"{.	c #099BEB",
"].	c #055982",
"^.	c #DCDCDC",
"/.	c #055E82",
"(.	c #07A2EC",
"_.	c #069BEB",
":.	c #77C1F4",
"<.	c #A7D6F5",
"[.	c #058DE3",
"}.	c #0794E3",
"|.	c #089DE4",
"1.	c #055B7E",
"2.	c #D7D7D7",
"3.	c #045F7E",
"4.	c #06A4E5",
"5.	c #069CE4",
"6.	c #77BFF0",
"7.	c #A7D5F3",
"8.	c #058BDC",
"9.	c #0793DC",
"0.	c #079DDE",
"a.	c #067BA3",
"b.	c #04617A",
"c.	c #04657A",
"d.	c #03687A",
"e.	c #036B7B",
"f.	c #026D7B",
"g.	c #026B7A",
"h.	c #03647A",
"i.	c #0481A3",
"j.	c #06A6DE",
"k.	c #059DDE",
"l.	c #77BEED",
"m.	c #A7D4F1",
"n.	c #058BD7",
"o.	c #0694D8",
"p.	c #079ED9",
"q.	c #07A9D9",
"r.	c #07B1DA",
"s.	c #05B9DA",
"t.	c #04C0DA",
"u.	c #03C4DB",
"v.	c #03C7DB",
"w.	c #03C8DB",
"x.	c #05B1DA",
"y.	c #05A7D9",
"z.	c #059DD9",
"A.	c #77BCE9",
"B.	c #A7D3F0",
"C.	c #048BD4",
"D.	c #0694D5",
"E.	c #069FD6",
"F.	c #06A9D6",
"G.	c #06B2D6",
"H.	c #04BBD6",
"I.	c #03C0D7",
"J.	c #03C7D7",
"K.	c #02CCD7",
"L.	c #01CCD7",
"M.	c #04BAD6",
"N.	c #05B2D6",
"O.	c #04A8D6",
"P.	c #049ED6",
"Q.	c #77BAE7",
"R.	c #367392",
"S.	c #336B86",
"T.	c #A7DBFE",
"U.	c #50C0FC",
"V.	c #52C9FD",
"W.	c #52D2FE",
"X.	c #52DBFE",
"Y.	c #51E4FE",
"Z.	c #50EBFE",
"`.	c #50F0FF",
" +	c #4EF7FF",
".+	c #4EFAFF",
"++	c #4EFBFF",
"@+	c #4FF0FF",
"#+	c #50EAFE",
"$+	c #50E3FE",
"%+	c #50DBFE",
"&+	c #50D2FE",
"*+	c #4EB6FC",
"=+	c #346E8C",
"-+	c #3B708B",
";+	c #005B98",
">+	c #036498",
",+	c #046C99",
"'+	c #047499",
")+	c #047C99",
"!+	c #04849A",
"~+	c #038A9A",
"{+	c #028E9B",
"]+	c #00959B",
"^+	c #00979B",
"/+	c #00999B",
"(+	c #02899A",
"_+	c #03839A",
":+	c #037C99",
"<+	c #037499",
"[+	c #036B99",
"}+	c #3C7DA0",
". + @ # $ % & * * = = = = * & & % # # - ; ",
"> , ' ) ! ~ { ] ] ^ ^ ^ ^ ] { ~ ~ / ( _ : ",
"< [ } | | 1 2 2 3 4 4 4 4 2 2 2 1 | 5 6 7 ",
"8 [ } | | 9 0 0 0 a a a a 0 0 0 9 | 5 6 b ",
"c d e f g h i i i i i i i i i i h g j k l ",
"m n o p q r i i i i i i i i i i r q p s t ",
"u v w x y z i i A A A A A B i i z y x C D ",
"u E F G H I J J K L L L L K J J I H M N D ",
"u O P Q R S J J T U U U U V J J S W X Y D ",
"Z `  ...+.@.#.#.$.%.&.*.&.=.#.#.-.;.>.,.'.",
"u ).!.~.{.].^.^.^.^.^.^.^.^.^.^./.(._.:.D ",
"m <.[.}.|.1.2.2.2.2.2.2.2.2.2.2.3.4.5.6.t ",
"c 7.8.9.0.a.b.c.d.e.f.f.f.g.d.h.i.j.k.l.l ",
"8 m.n.o.p.q.r.s.t.u.v.w.v.u.t.s.x.y.z.A.b ",
"< B.C.D.E.F.G.H.I.J.K.L.K.J.I.M.N.O.P.Q.R.",
"S.T.U.V.W.X.Y.Z.`. +.+++.+ +@+#+$+%+&+*+=+",
"-+;+>+,+'+)+!+~+{+]+^+/+^+]+{+(+_+:+<+[+}+",
"                                          ",
"                                          ",
"                                          ",
"                                          "};
