/* XPM */
static char * vista_sticky_pressed_xpm[] = {
"21 21 212 2",
"  	c None",
". 	c #3F738D",
"+ 	c #E9F6FF",
"@ 	c #C0E5FE",
"# 	c #C1E6FE",
"$ 	c #C2E6FE",
"% 	c #C2E7FE",
"& 	c #C3E7FE",
"* 	c #C3E8FE",
"= 	c #C3E8FF",
"- 	c #DDF1FF",
"; 	c #3F7793",
"> 	c #3E7590",
", 	c #E5F4FF",
"' 	c #B6E1FE",
") 	c #B7E1FE",
"! 	c #B8E2FE",
"~ 	c #B8E3FE",
"{ 	c #B9E3FE",
"] 	c #B9E4FE",
"^ 	c #B9E4FF",
"/ 	c #B7E2FE",
"( 	c #B6E2FE",
"_ 	c #D7EEFF",
": 	c #3E7996",
"< 	c #3F7995",
"[ 	c #E0F2FF",
"} 	c #A8DBFE",
"| 	c #A9DCFE",
"1 	c #AADDFE",
"2 	c #ABDEFE",
"3 	c #ACDEFE",
"4 	c #ACDFFF",
"5 	c #A8DCFE",
"6 	c #CFEBFF",
"7 	c #3F7C9B",
"8 	c #407C99",
"9 	c #407F9F",
"0 	c #427E9C",
"a 	c #DBF0FF",
"b 	c #98D5FD",
"c 	c #9AD6FD",
"d 	c #9BD7FE",
"e 	c #9AD7FE",
"f 	c #C7E8FF",
"g 	c #4282A2",
"h 	c #42819F",
"i 	c #D6EEFF",
"j 	c #8BCFFE",
"k 	c #8CD1FE",
"l 	c #8DD1FE",
"m 	c #BFE5FF",
"n 	c #4385A5",
"o 	c #4382A1",
"p 	c #D2ECFF",
"q 	c #7FCBFD",
"r 	c #81CBFD",
"s 	c #81CCFD",
"t 	c #B9E2FF",
"u 	c #4386A6",
"v 	c #CFECFE",
"w 	c #79C7FD",
"x 	c #7AC9FD",
"y 	c #7BCBFD",
"z 	c #FCFCFC",
"A 	c #FFFFFF",
"B 	c #7ACAFD",
"C 	c #B5E1FE",
"D 	c #A7DAFC",
"E 	c #0696F6",
"F 	c #0998F6",
"G 	c #0B9AF7",
"H 	c #0A9AF7",
"I 	c #FEFEFE",
"J 	c #0899F7",
"K 	c #77C6FA",
"L 	c #4485A3",
"M 	c #A7D9FA",
"N 	c #0693F1",
"O 	c #0995F1",
"P 	c #0B99F2",
"Q 	c #0999F2",
"R 	c #0899F1",
"S 	c #089BF0",
"T 	c #079BEF",
"U 	c #F1F1F1",
"V 	c #099BF2",
"W 	c #0898F2",
"X 	c #77C4F8",
"Y 	c #4488A8",
"Z 	c #A7D7F8",
"` 	c #068FEA",
" .	c #0795EA",
"..	c #059BE8",
"+.	c #039CE6",
"@.	c #039EE5",
"#.	c #039FE3",
"$.	c #03A0E3",
"%.	c #03A2E2",
"&.	c #03A4E0",
"*.	c #03A3E2",
"=.	c #03A4E4",
"-.	c #06A3E9",
";.	c #07A2EC",
">.	c #069BEB",
",.	c #77C1F4",
"'.	c #A7D6F5",
").	c #058DE3",
"!.	c #0598E2",
"~.	c #039EE0",
"{.	c #03A0DE",
"].	c #03A1DD",
"^.	c #03A3DD",
"/.	c #03A5DC",
"(.	c #03A7DB",
"_.	c #03A9DA",
":.	c #03ACDA",
"<.	c #03ADDA",
"[.	c #03ADDC",
"}.	c #03ACDD",
"|.	c #04AAE0",
"1.	c #06A4E5",
"2.	c #069CE4",
"3.	c #77BFF0",
"4.	c #A7D5F3",
"5.	c #058BDC",
"6.	c #0698DB",
"7.	c #04A6DA",
"8.	c #02AED9",
"9.	c #03AEDA",
"0.	c #03B0DA",
"a.	c #03B2D9",
"b.	c #02B5D9",
"c.	c #02B7D9",
"d.	c #02B8D9",
"e.	c #03B8D9",
"f.	c #04BADA",
"g.	c #05B1DA",
"h.	c #06A6DE",
"i.	c #059DDE",
"j.	c #77BEED",
"k.	c #A7D4F1",
"l.	c #058BD7",
"m.	c #0695D8",
"n.	c #07A0D9",
"o.	c #07AAD9",
"p.	c #06B0DA",
"q.	c #05B7DA",
"r.	c #04BBDA",
"s.	c #03BDDA",
"t.	c #03C0DA",
"u.	c #02C0D9",
"v.	c #02C0D8",
"w.	c #02BFD8",
"x.	c #03BFD9",
"y.	c #05B9DA",
"z.	c #05A7D9",
"A.	c #059DD9",
"B.	c #77BCE9",
"C.	c #A7D3F0",
"D.	c #048BD4",
"E.	c #0694D5",
"F.	c #069FD6",
"G.	c #06A9D6",
"H.	c #06B2D6",
"I.	c #04BBD6",
"J.	c #03C0D7",
"K.	c #03C7D7",
"L.	c #02CCD7",
"M.	c #01CCD7",
"N.	c #04BAD6",
"O.	c #05B2D6",
"P.	c #04A8D6",
"Q.	c #049ED6",
"R.	c #77BAE7",
"S.	c #367392",
"T.	c #336B86",
"U.	c #A7DBFE",
"V.	c #50C0FC",
"W.	c #52C9FD",
"X.	c #52D2FE",
"Y.	c #52DBFE",
"Z.	c #51E4FE",
"`.	c #50EBFE",
" +	c #50F0FF",
".+	c #4EF7FF",
"++	c #4EFAFF",
"@+	c #4EFBFF",
"#+	c #4FF0FF",
"$+	c #50EAFE",
"%+	c #50E3FE",
"&+	c #50DBFE",
"*+	c #50D2FE",
"=+	c #036B99",
"-+	c #346E8C",
";+	c #3B708B",
">+	c #005B98",
",+	c #036498",
"'+	c #046C99",
")+	c #047499",
"!+	c #047C99",
"~+	c #04849A",
"{+	c #038A9A",
"]+	c #028E9B",
"^+	c #00959B",
"/+	c #00979B",
"(+	c #00999B",
"_+	c #02899A",
":+	c #03839A",
"<+	c #037C99",
"[+	c #037499",
"}+	c #494E55",
". + @ # $ % & * * = = = = * & & % # # - ; ",
"> , ' ) ! ~ { ] ] ^ ^ ^ ^ ] { ~ ~ / ( _ : ",
"< [ } | | 1 2 2 3 4 4 4 4 2 2 2 1 | 5 6 7 ",
"8 [ } | | | | | | | | | | | | | | | 5 6 9 ",
"0 a b c d d d d d d d d d d d d d d e f g ",
"h i j k l l l l l l l l l l l l l l k m n ",
"o p q r s s s s s s s s s s s s s s r t u ",
"o v w x y y y y y z A z y y y y y y B C u ",
"o D E F G G G H H I A I H H H H H H J K u ",
"L M N O P Q R S T U I U V V V V V V W X Y ",
"o Z `  ...+.@.#.$.%.&.&.&.*.=.-.;.;.>.,.u ",
"h '.).!.~.{.].^./.(._.:.<.[.}.|.1.1.2.3.n ",
"0 4.5.6.7.8.9.0.0.a.b.c.d.d.e.f.g.h.i.j.g ",
"8 k.l.m.n.o.p.q.r.s.t.u.v.w.x.y.g.z.A.B.9 ",
"< C.D.E.F.G.H.I.J.K.L.M.L.K.J.N.O.P.Q.R.S.",
"T.U.V.W.X.Y.Z.`. +.+++@+++.+#+$+%+&+*+=+-+",
";+>+,+'+)+!+~+{+]+^+/+(+/+^+]+_+:+<+[+=+}+",
"                                          ",
"                                          ",
"                                          ",
"                                          "};
