/* XPM */
static char * vista_unsticky_pressed_xpm[] = {
"21 21 204 2",
"  	c None",
". 	c #3F738D",
"+ 	c #E9F6FF",
"@ 	c #C0E5FE",
"# 	c #C1E6FE",
"$ 	c #C2E6FE",
"% 	c #C2E7FE",
"& 	c #C3E7FE",
"* 	c #C3E8FE",
"= 	c #C3E8FF",
"- 	c #DDF1FF",
"; 	c #3F7793",
"> 	c #3E7590",
", 	c #E5F4FF",
"' 	c #B6E1FE",
") 	c #B7E1FE",
"! 	c #B8E2FE",
"~ 	c #B8E3FE",
"{ 	c #B9E3FE",
"] 	c #B9E4FE",
"^ 	c #B9E4FF",
"/ 	c #B7E2FE",
"( 	c #B6E2FE",
"_ 	c #D7EEFF",
": 	c #3E7996",
"< 	c #3F7995",
"[ 	c #E0F2FF",
"} 	c #A8DBFE",
"| 	c #A9DCFE",
"1 	c #AADDFE",
"2 	c #ABDEFE",
"3 	c #ACDEFE",
"4 	c #ACDFFF",
"5 	c #A8DCFE",
"6 	c #CFEBFF",
"7 	c #3F7C9B",
"8 	c #407C99",
"9 	c #407F9F",
"0 	c #427E9C",
"a 	c #DBF0FF",
"b 	c #98D5FD",
"c 	c #9AD6FD",
"d 	c #9BD7FE",
"e 	c #ECEBEB",
"f 	c #C9CACA",
"g 	c #9AD7FE",
"h 	c #C7E8FF",
"i 	c #4282A2",
"j 	c #42819F",
"k 	c #D6EEFF",
"l 	c #8BCFFE",
"m 	c #8CD1FE",
"n 	c #8DD1FE",
"o 	c #FCFCFC",
"p 	c #BFE5FF",
"q 	c #4385A5",
"r 	c #4382A1",
"s 	c #D2ECFF",
"t 	c #7FCBFD",
"u 	c #81CBFD",
"v 	c #81CCFD",
"w 	c #B9E2FF",
"x 	c #4386A6",
"y 	c #CFECFE",
"z 	c #79C7FD",
"A 	c #7AC9FD",
"B 	c #7BCBFD",
"C 	c #7ACAFD",
"D 	c #B5E1FE",
"E 	c #A7DAFC",
"F 	c #0696F6",
"G 	c #0998F6",
"H 	c #0B9AF7",
"I 	c #0A9AF7",
"J 	c #0899F7",
"K 	c #77C6FA",
"L 	c #4485A3",
"M 	c #A7D9FA",
"N 	c #0693F1",
"O 	c #0995F1",
"P 	c #0B99F2",
"Q 	c #0999F2",
"R 	c #0899F1",
"S 	c #099BF2",
"T 	c #0898F2",
"U 	c #77C4F8",
"V 	c #4488A8",
"W 	c #A7D7F8",
"X 	c #068FEA",
"Y 	c #0795EA",
"Z 	c #059BE8",
"` 	c #039CE6",
" .	c #039EE5",
"..	c #03A4E4",
"+.	c #06A3E9",
"@.	c #07A2EC",
"#.	c #069BEB",
"$.	c #77C1F4",
"%.	c #A7D6F5",
"&.	c #058DE3",
"*.	c #0598E2",
"=.	c #039EE0",
"-.	c #03A0DE",
";.	c #03A1DD",
">.	c #03A3DD",
",.	c #03A5DC",
"'.	c #03A7DB",
").	c #03A9DA",
"!.	c #03ACDA",
"~.	c #03ADDA",
"{.	c #03ADDC",
"].	c #03ACDD",
"^.	c #04AAE0",
"/.	c #06A4E5",
"(.	c #069CE4",
"_.	c #77BFF0",
":.	c #A7D5F3",
"<.	c #058BDC",
"[.	c #0698DB",
"}.	c #04A6DA",
"|.	c #02AED9",
"1.	c #03AEDA",
"2.	c #03B0DA",
"3.	c #03B2D9",
"4.	c #02B5D9",
"5.	c #02B7D9",
"6.	c #02B8D9",
"7.	c #03B8D9",
"8.	c #04BADA",
"9.	c #05B1DA",
"0.	c #06A6DE",
"a.	c #059DDE",
"b.	c #77BEED",
"c.	c #A7D4F1",
"d.	c #058BD7",
"e.	c #0695D8",
"f.	c #07A0D9",
"g.	c #07AAD9",
"h.	c #06B0DA",
"i.	c #05B7DA",
"j.	c #04BBDA",
"k.	c #03BDDA",
"l.	c #03C0DA",
"m.	c #02C0D9",
"n.	c #02C0D8",
"o.	c #02BFD8",
"p.	c #03BFD9",
"q.	c #05B9DA",
"r.	c #05A7D9",
"s.	c #059DD9",
"t.	c #77BCE9",
"u.	c #A7D3F0",
"v.	c #048BD4",
"w.	c #0694D5",
"x.	c #069FD6",
"y.	c #06A9D6",
"z.	c #06B2D6",
"A.	c #04BBD6",
"B.	c #03C0D7",
"C.	c #03C7D7",
"D.	c #02CCD7",
"E.	c #01CCD7",
"F.	c #04BAD6",
"G.	c #05B2D6",
"H.	c #04A8D6",
"I.	c #049ED6",
"J.	c #77BAE7",
"K.	c #367392",
"L.	c #336B86",
"M.	c #A7DBFE",
"N.	c #50C0FC",
"O.	c #52C9FD",
"P.	c #52D2FE",
"Q.	c #52DBFE",
"R.	c #51E4FE",
"S.	c #50EBFE",
"T.	c #50F0FF",
"U.	c #4EF7FF",
"V.	c #4EFAFF",
"W.	c #4EFBFF",
"X.	c #4FF0FF",
"Y.	c #50EAFE",
"Z.	c #50E3FE",
"`.	c #50DBFE",
" +	c #50D2FE",
".+	c #036B99",
"++	c #346E8C",
"@+	c #3B708B",
"#+	c #005B98",
"$+	c #036498",
"%+	c #046C99",
"&+	c #047499",
"*+	c #047C99",
"=+	c #04849A",
"-+	c #038A9A",
";+	c #028E9B",
">+	c #00959B",
",+	c #00979B",
"'+	c #00999B",
")+	c #02899A",
"!+	c #03839A",
"~+	c #037C99",
"{+	c #037499",
"]+	c #494E55",
". + @ # $ % & * * = = = = * & & % # # - ; ",
"> , ' ) ! ~ { ] ] ^ ^ ^ ^ ] { ~ ~ / ( _ : ",
"< [ } | | 1 2 2 3 4 4 4 4 2 2 2 1 | 5 6 7 ",
"8 [ } | | | | | | | | | | | | | | | 5 6 9 ",
"0 a b c d d d e f f f f f e d d d d g h i ",
"j k l m n n n f o o o o o f n n n n m p q ",
"r s t u v v v f o o o o o f v v v v u w x ",
"r y z A B B B f o o o o o f B B B B C D x ",
"r E F G H H H f o o o o o f I I I I J K x ",
"L M N O P Q R f o o o o o f S S S S T U V ",
"r W X Y Z `  .e f f f f f e ..+.@.@.#.$.x ",
"j %.&.*.=.-.;.>.,.'.).!.~.{.].^././.(._.q ",
"0 :.<.[.}.|.1.2.2.3.4.5.6.6.7.8.9.0.a.b.i ",
"8 c.d.e.f.g.h.i.j.k.l.m.n.o.p.q.9.r.s.t.9 ",
"< u.v.w.x.y.z.A.B.C.D.E.D.C.B.F.G.H.I.J.K.",
"L.M.N.O.P.Q.R.S.T.U.V.W.V.U.X.Y.Z.`. +.+++",
"@+#+$+%+&+*+=+-+;+>+,+'+,+>+;+)+!+~+{+.+]+",
"                                          ",
"                                          ",
"                                          ",
"                                          "};
