/* XPM */
static char * close_xpm[] = {
"21 21 67 1",
" 	c None",
".	c #D2D4D5",
"+	c #BEC0C3",
"@	c #C6C8CB",
"#	c #000000",
"$	c #ABAEB1",
"%	c #BBBDC0",
"&	c #D1D3D5",
"*	c #979A9D",
"=	c #ADAFB2",
"-	c #CDCFD1",
";	c #6F7173",
">	c #535556",
",	c #CCCDCF",
"'	c #8C8F92",
")	c #4D4F50",
"!	c #FFFFFF",
"~	c #67696B",
"{	c #A5A7AA",
"]	c #C8CACC",
"^	c #83868A",
"/	c #606366",
"(	c #484A4C",
"_	c #FDFDFD",
":	c #9D9FA3",
"<	c #C6C8CA",
"[	c #7A7E82",
"}	c #5A5C5F",
"|	c #434547",
"1	c #FAFAFA",
"2	c #989A9E",
"3	c #C6C7C9",
"4	c #74777B",
"5	c #55575B",
"6	c #404144",
"7	c #E9E9E9",
"8	c #94969A",
"9	c #B3B4B6",
"0	c #353A41",
"a	c #272B30",
"b	c #1D2024",
"c	c #656A71",
"d	c #343940",
"e	c #262A2F",
"f	c #1D1F23",
"g	c #E2E2E2",
"h	c #363B43",
"i	c #282B31",
"j	c #1E2025",
"k	c #DCDCDC",
"l	c #676C73",
"m	c #3A3F46",
"n	c #202326",
"o	c #D7D7D7",
"p	c #2B2F33",
"q	c #6A6E74",
"r	c #3F434A",
"s	c #2F3137",
"t	c #232529",
"u	c #444950",
"v	c #4B5158",
"w	c #04060B",
"x	c #BFC0C2",
"y	c #7D8087",
"z	c #7F8282",
"A	c #818385",
"B	c #6A6D6E",
".++++++++++++++++++@#",
".$$$$$$$$$$$$$$$$$$%#",
"&******************=#",
"-***;>>>;*;>>>;****=#",
",''')!!!)~)!!!)''''{#",
"]^^^/(___(___(/^^^^:#",
"<[[[[}|11111|}[[[[[2#",
"34444456777654444448#",
"900000ab777ba000000c#",
"9ddddefgggggfedddddc#",
"9hhhijkkkjkkkjihhhhl#",
"9mmmnooonpnooonmmmmq#",
"9rrrstttsrstttsrrrrq#",
"9uuuuuuuuuuuuuuuuuuq#",
"9vvvvvvvvvvvvvvvvvvqw",
"xyyyyyyyyyyyyyyyyyy#z",
"###################AB",
"                     ",
"                     ",
"                     ",
"                     "};
