/* XPM */
static char * vista_max_xpm[] = {
"21 21 58 1",
" 	c None",
".	c #000000",
"+	c #D2D4D6",
"@	c #BEBFC3",
"#	c #C7C9CC",
"$	c #C9CBCE",
"%	c #AAACAF",
"&	c #B9BBBF",
"*	c #C3C4C7",
"=	c #95989C",
"-	c #ACAFB2",
";	c #6E6F73",
">	c #525356",
",	c #BFC1C5",
"'	c #8A8D91",
")	c #4C4D50",
"!	c #FCFCFC",
"~	c #A4A6AA",
"{	c #BCBEC1",
"]	c #808488",
"^	c #46484B",
"/	c #9EA1A5",
"(	c #787C80",
"_	c #424446",
":	c #999B9F",
"<	c #B8B9BD",
"[	c #73767A",
"}	c #3F4143",
"|	c #E9E9E9",
"1	c #96989C",
"2	c #A0A3A8",
"3	c #32373F",
"4	c #1B1E23",
"5	c #696D74",
"6	c #E2E2E2",
"7	c #A1A5A9",
"8	c #343940",
"9	c #1D1F23",
"0	c #DCDCDC",
"a	c #6B6F75",
"b	c #A2A5AA",
"c	c #373C43",
"d	c #1E2125",
"e	c #D7D7D7",
"f	c #6D7177",
"g	c #A4A7AB",
"h	c #3C4148",
"i	c #2C3035",
"j	c #212428",
"k	c #70747A",
"l	c #A5A9AD",
"m	c #42474E",
"n	c #74787E",
"o	c #A8ABAF",
"p	c #494E55",
"q	c #787C83",
"r	c #BABCC0",
"s	c #7B8086",
".+@@@@@@@@@@@@@@@@@#.",
".$%%%%%%%%%%%%%%%%%&.",
".*=================-.",
".*===;>>>>>>>>>>;==-.",
".,''')!!!!!!!!!!)''~.",
".{]]]^!!!!!!!!!!^]]/.",
".&(((_!!______!!_((:.",
".<[[[}||}[[[[}||}[[1.",
".23334||433334||4335.",
".2333466444444664335.",
".788890000000000988a.",
".bcccdeeeeeeeeeedccf.",
".ghhhijjjjjjjjjjihhk.",
".lmmmmmmmmmmmmmmmmmn.",
".opppppppppppppppppq.",
".rssssssssssssssssss.",
".....................",
"                     ",
"                     ",
"                     ",
"                     "};
