/* XPM */
static char * vista_min_xpm[] = {
"21 21 52 1",
" 	c None",
".	c #000000",
"+	c #CED0D2",
"@	c #BEBFC3",
"#	c #C7C9CC",
"$	c #C3C5C9",
"%	c #AAACAF",
"&	c #B9BBBF",
"*	c #BBBDC1",
"=	c #94979B",
"-	c #ABAEB1",
";	c #B5B7BB",
">	c #898C90",
",	c #A3A6AA",
"'	c #B1B4B8",
")	c #808488",
"!	c #9EA1A5",
"~	c #ADB0B4",
"{	c #787B7F",
"]	c #999B9F",
"^	c #ABAEB2",
"/	c #717478",
"(	c #94979A",
"_	c #868B92",
":	c #31363E",
"<	c #24282E",
"[	c #1B1E22",
"}	c #676C73",
"|	c #30353D",
"1	c #1A1D21",
"2	c #FFFFFF",
"3	c #878C94",
"4	c #33373F",
"5	c #1C1E23",
"6	c #DCDCDC",
"7	c #696D74",
"8	c #8A8E95",
"9	c #363B42",
"0	c #1E2024",
"a	c #D7D7D7",
"b	c #888C93",
"c	c #3A3F46",
"d	c #2B2F33",
"e	c #202326",
"f	c #7B7F85",
"g	c #41464D",
"h	c #04060B",
"i	c #484E55",
"j	c #787C83",
"k	c #81858C",
"l	c #7D8288",
"m	c #7A7F85",
".+@@@@@@@@@@@@@@@@@@#",
".$%%%%%%%%%%%%%%%%%%&",
".*==================-",
".*==================-",
".;>>>>>>>>>>>>>>>>>>,",
".'))))))))))))))))))!",
".~{{{{{{{{{{{{{{{{{{]",
".^//////////////////(",
"._:::<[[[[[[[[[<::::}",
"._|||12222222221||||}",
".34445666666666544447",
".89990aaaaaaaaa09999}",
".bcccdeeeeeeeeedcccc7",
".fgggggggggggggggggg7",
"hfiiiiiiiiiiiiiiiiiij",
"h.klmmmmmmmmmmmmmmmmm",
"hh...................",
"                     ",
"                     ",
"                     ",
"                     "};
