/* XPM */
static char * vista_min_pressed_xpm[] = {
"21 21 194 2",
"  	c None",
". 	c #005B98",
"+ 	c #EDF8FF",
"@ 	c #C1E6FE",
"# 	c #C2E6FE",
"$ 	c #C2E7FE",
"% 	c #C3E7FE",
"& 	c #C3E8FE",
"* 	c #C3E8FF",
"= 	c #C0E6FE",
"- 	c #B1E4FE",
"; 	c #ADE3FE",
"> 	c #EAF6FF",
", 	c #B7E1FE",
"' 	c #B8E2FE",
") 	c #B8E3FE",
"! 	c #B9E3FE",
"~ 	c #B9E4FE",
"{ 	c #B9E4FF",
"] 	c #B7E2FE",
"^ 	c #B6E2FE",
"/ 	c #B6E1FE",
"( 	c #A5E0FD",
"_ 	c #E6F5FF",
": 	c #A9DCFE",
"< 	c #AADDFE",
"[ 	c #ABDEFE",
"} 	c #ACDEFE",
"| 	c #ACDFFF",
"1 	c #A8DCFE",
"2 	c #9CDDFD",
"3 	c #E2F3FF",
"4 	c #9AD6FD",
"5 	c #9BD7FE",
"6 	c #9CD8FE",
"7 	c #9DD8FE",
"8 	c #9DD9FE",
"9 	c #9ED9FE",
"0 	c #9AD7FE",
"a 	c #98D5FD",
"b 	c #95DAFD",
"c 	c #DEF1FF",
"d 	c #8CD1FE",
"e 	c #8DD1FE",
"f 	c #8ED2FE",
"g 	c #90D3FE",
"h 	c #90D4FE",
"i 	c #8FD3FE",
"j 	c #8BD0FE",
"k 	c #8ED7FD",
"l 	c #DBF0FF",
"m 	c #81CBFD",
"n 	c #81CCFD",
"o 	c #83CEFD",
"p 	c #84CFFD",
"q 	c #85CFFD",
"r 	c #85CFFE",
"s 	c #7FCBFD",
"t 	c #89D6FD",
"u 	c #D9EFFE",
"v 	c #7AC9FD",
"w 	c #7BCBFD",
"x 	c #7CCBFD",
"y 	c #7ECCFD",
"z 	c #7FCDFD",
"A 	c #7FCDFE",
"B 	c #7DCCFD",
"C 	c #7ACAFD",
"D 	c #79C8FD",
"E 	c #86D4FD",
"F 	c #0998F6",
"G 	c #0B9AF7",
"H 	c #0D9CF7",
"I 	c #0C73B6",
"J 	c #095788",
"K 	c #0A5788",
"L 	c #0A5889",
"M 	c #085688",
"N 	c #0973B6",
"O 	c #0A9AF7",
"P 	c #0899F7",
"Q 	c #0697F6",
"R 	c #5BC1FA",
"S 	c #0995F1",
"T 	c #0B99F2",
"U 	c #0B9DF2",
"V 	c #075985",
"W 	c #FFFFFF",
"X 	c #065885",
"Y 	c #099BF2",
"Z 	c #0898F2",
"` 	c #0694F1",
" .	c #5BC0F8",
"..	c #0893EA",
"+.	c #099BEB",
"@.	c #0AA3EC",
"#.	c #065E82",
"$.	c #DCDCDC",
"%.	c #055E82",
"&.	c #07A2EC",
"*.	c #069BEB",
"=.	c #0692EA",
"-.	c #5BBFF5",
";.	c #0794E3",
">.	c #089DE4",
",.	c #09A5E5",
"'.	c #055F7E",
").	c #D7D7D7",
"!.	c #045F7E",
"~.	c #06A4E5",
"{.	c #069CE4",
"].	c #0593E3",
"^.	c #5BBDF3",
"/.	c #005E9D",
"(.	c #B8E1FC",
"_.	c #0793DC",
":.	c #079DDE",
"<.	c #08A7DE",
"[.	c #0682A4",
"}.	c #04657A",
"|.	c #03687A",
"1.	c #036B7B",
"2.	c #026D7B",
"3.	c #026B7A",
"4.	c #03647A",
"5.	c #0481A3",
"6.	c #06A6DE",
"7.	c #059DDE",
"8.	c #0492DC",
"9.	c #5ABBF0",
"0.	c #ABD9F8",
"a.	c #0694D8",
"b.	c #079ED9",
"c.	c #07A9D9",
"d.	c #07B1DA",
"e.	c #05B9DA",
"f.	c #04C0DA",
"g.	c #03C4DB",
"h.	c #03C7DB",
"i.	c #03C8DB",
"j.	c #05B1DA",
"k.	c #05A7D9",
"l.	c #059DD9",
"m.	c #0493D8",
"n.	c #5ABAEE",
"o.	c #0766A5",
"p.	c #0694D5",
"q.	c #069FD6",
"r.	c #06A9D6",
"s.	c #06B2D6",
"t.	c #04BBD6",
"u.	c #03C0D7",
"v.	c #03C7D7",
"w.	c #02CCD7",
"x.	c #01CCD7",
"y.	c #04BAD6",
"z.	c #05B2D6",
"A.	c #04A8D6",
"B.	c #049ED6",
"C.	c #0494D5",
"D.	c #5AB8EC",
"E.	c #0A5C93",
"F.	c #52C9FD",
"G.	c #52D2FE",
"H.	c #52DBFE",
"I.	c #51E4FE",
"J.	c #50EBFE",
"K.	c #50F0FF",
"L.	c #4EF7FF",
"M.	c #4EFAFF",
"N.	c #4EFBFF",
"O.	c #4FF0FF",
"P.	c #50EAFE",
"Q.	c #50E3FE",
"R.	c #50DBFE",
"S.	c #50D2FE",
"T.	c #50C8FD",
"U.	c #55BFFC",
"V.	c #046C99",
"W.	c #047499",
"X.	c #047C99",
"Y.	c #04849A",
"Z.	c #038A9A",
"`.	c #028E9B",
" +	c #00959B",
".+	c #00979B",
"++	c #00999B",
"@+	c #02899A",
"#+	c #03839A",
"$+	c #037C99",
"%+	c #037499",
"&+	c #036B99",
"*+	c #025D98",
"=+	c #1F7FB7",
". + @ # $ % & & * * * * & % % $ @ @ = - . ",
". + @ # $ % & & * * * * & % % $ @ @ = ; . ",
". > , ' ) ! ~ ~ { { { { ~ ! ) ) ] ^ / ( . ",
". _ : : < [ [ } | | | | [ [ [ < : 1 1 2 . ",
". 3 4 5 6 7 8 9 9 9 9 9 8 7 6 6 5 0 a b . ",
". c d e f g g g h h h h g g i f e d j k . ",
". l m n o p p q r r r r p p p o n m s t . ",
". u v w x y z z A A A A z y B x w C D E . ",
". ' F G H I J K L L L L J J M N O P Q R . ",
". ' S T U V W W W W W W W W W X Y Z `  .. ",
". ' ..+.@.#.$.$.$.$.$.$.$.$.$.%.&.*.=.-.. ",
". ' ;.>.,.'.).).).).).).).).).!.~.{.].^.. ",
"/.(._.:.<.[.}.|.1.2.2.2.3.|.4.5.6.7.8.9./.",
"/.0.a.b.c.d.e.f.g.h.i.h.g.f.e.j.k.l.m.n./.",
"o.(.p.q.r.s.t.u.v.w.x.w.v.u.y.z.A.B.C.D.o.",
"E.F.F.G.H.I.J.K.L.M.N.M.L.O.P.Q.R.S.T.U.E.",
"E.E.V.W.X.Y.Z.`. +.+++.+ +`.@+#+$+%+&+*+=+",
"                                          ",
"                                          ",
"                                          ",
"                                          "};
