/* XPM */
static char * vista_sticky_xpm[] = {
"21 21 46 1",
" 	c None",
".	c #000000",
"+	c #D2D4D6",
"@	c #BEBFC3",
"#	c #C7C9CC",
"$	c #C9CBCE",
"%	c #AAACAF",
"&	c #B9BBBF",
"*	c #C3C4C7",
"=	c #95989C",
"-	c #ACAFB2",
";	c #BFC1C5",
">	c #8A8D91",
",	c #A4A6AA",
"'	c #BCBEC1",
")	c #808488",
"!	c #9EA1A5",
"~	c #787C80",
"{	c #999B9F",
"]	c #B8B9BD",
"^	c #73767A",
"/	c #FCFCFC",
"(	c #FFFFFF",
"_	c #96989C",
":	c #A0A3A8",
"<	c #32373F",
"[	c #FEFEFE",
"}	c #696D74",
"|	c #F1F1F1",
"1	c #A1A5A9",
"2	c #343940",
"3	c #6B6F75",
"4	c #A2A5AA",
"5	c #373C43",
"6	c #6D7177",
"7	c #A4A7AB",
"8	c #3C4148",
"9	c #70747A",
"0	c #A5A9AD",
"a	c #42474E",
"b	c #74787E",
"c	c #A8ABAF",
"d	c #494E55",
"e	c #787C83",
"f	c #BABCC0",
"g	c #7B8086",
".+@@@@@@@@@@@@@@@@@#.",
".$%%%%%%%%%%%%%%%%%&.",
".*=================-.",
".*=================-.",
".;>>>>>>>>>>>>>>>>>,.",
".')))))))))))))))))!.",
".&~~~~~~~~~~~~~~~~~{.",
".]^^^^^^^/(/^^^^^^^_.",
".:<<<<<<<[([<<<<<<<}.",
".:<<<<<<<|[|<<<<<<<}.",
".1222222222222222223.",
".4555555555555555556.",
".7888888888888888889.",
".0aaaaaaaaaaaaaaaaab.",
".cddddddddddddddddde.",
".fggggggggggggggggg..",
"....................d",
"                     ",
"                     ",
"                     ",
"                     "};
