/* XPM */
static char * vista_un_sticky_xpm[] = {
"21 21 45 1",
" 	c None",
".	c #000000",
"+	c #D2D4D6",
"@	c #BEBFC3",
"#	c #C7C9CC",
"$	c #C9CBCE",
"%	c #AAACAF",
"&	c #B9BBBF",
"*	c #C3C4C7",
"=	c #95989C",
"-	c #ACAFB2",
";	c #BFC1C5",
">	c #8A8D91",
",	c #ECEBEB",
"'	c #C9CACA",
")	c #A4A6AA",
"!	c #BCBEC1",
"~	c #808488",
"{	c #FCFCFC",
"]	c #9EA1A5",
"^	c #787C80",
"/	c #999B9F",
"(	c #B8B9BD",
"_	c #73767A",
":	c #96989C",
"<	c #A0A3A8",
"[	c #32373F",
"}	c #696D74",
"|	c #A1A5A9",
"1	c #343940",
"2	c #6B6F75",
"3	c #A2A5AA",
"4	c #373C43",
"5	c #6D7177",
"6	c #A4A7AB",
"7	c #3C4148",
"8	c #70747A",
"9	c #A5A9AD",
"0	c #42474E",
"a	c #74787E",
"b	c #A8ABAF",
"c	c #494E55",
"d	c #787C83",
"e	c #BABCC0",
"f	c #7B8086",
".+@@@@@@@@@@@@@@@@@#.",
".$%%%%%%%%%%%%%%%%%&.",
".*=================-.",
".*=================-.",
".;>>>>>,''''',>>>>>).",
".!~~~~~'{{{{{'~~~~~].",
".&^^^^^'{{{{{'^^^^^/.",
".(_____'{{{{{'_____:.",
".<[[[[['{{{{{'[[[[[}.",
".<[[[[['{{{{{'[[[[[}.",
".|11111,''''',111112.",
".3444444444444444445.",
".6777777777777777778.",
".900000000000000000a.",
".bcccccccccccccccccd.",
".efffffffffffffffff..",
"....................c",
"                     ",
"                     ",
"                     ",
"                     "};
