/* XPM */
static char * windowfcs_xpm[] = {
"21 21 13 1",
" 	c None",
".	c #4B4B4B",
"+	c #5C5C5C",
"@	c #5A5A5A",
"#	c #414141",
"$	c #383838",
"%	c #2C2C2C",
"&	c #202020",
"*	c #131313",
"=	c #0A0A0A",
"-	c #010101",
";	c #020202",
">	c #000000",
".....................",
"+++++++++++++++++++++",
"@@@@@@@@@@@@@@@@@@@@@",
".....................",
"#####################",
"$$$$$$$$$$$$$$$$$$$$$",
"%%%%%%%%%%%%%%%%%%%%%",
"&&&&&&&&&&&&&&&&&&&&&",
"*********************",
"=====================",
"---------------------",
";;;;;;;;;;;;;;;;;;;;;",
";;;;;;;;;;;;;;;;;;;;;",
";;;;;;;;;;;;;;;;;;;;;",
";;;;;;;;;;;;;;;;;;;;;",
"---------------------",
">>>>>>>>>>>>>>>>>>>>>",
">>>>>>>>>>>>>>>>>>>>>",
"---------------------",
"---------------------",
"---------------------"};
